<svg id="visual" viewBox="0 0 960 47" width="960" height="47" xmlns="http://www.w3.org/2000/svg"
    xmlns:xlink="http://www.w3.org/1999/xlink" version="1.1">
    <rect x="0" y="0" width="960" height="100" fill="#9C0F48"></rect>
    <path
        d="M 0 0 L 8 6.3 C 16 12.7 32 25.3 48 33.7 C 64 42 80 46 96 46 C 112 46 128 42 144 38.5 C 160 35 176 32 192 32.5 C 208 33 224 37 240 37.8 C 256 38.7 272 36.3 288 32.2 C 304 28 320 22 336 16.2 C 352 10.3 368 4.7 384 4.3 C 400 4 416 9 432 16.2 C 448 23.3 464 32.7 480 32.7 C 496 32.7 512 23.3 528 15.7 C 544 8 560 2 576 1.7 C 592 1.3 608 6.7 624 12.3 C 640 18 656 24 672 29.2 C 688 34.3 704 38.7 720 35.7 C 736 32.7 752 22.3 768 17 C 784 11.7 800 11.3 816 14.3 C 832 17.3 848 23.7 864 27.8 C 880 32 896 34 912 32.8 C 928 31.7 944 27.3 952 25.2 L 960 23 L 960 47 L 952 47 C 944 47 928 47 912 47 C 896 47 880 47 864 47 C 848 47 832 47 816 47 C 800 47 784 47 768 47 C 752 47 736 47 720 47 C 704 47 688 47 672 47 C 656 47 640 47 624 47 C 608 47 592 47 576 47 C 560 47 544 47 528 47 C 512 47 496 47 480 47 C 464 47 448 47 432 47 C 416 47 400 47 384 47 C 368 47 352 47 336 47 C 320 47 304 47 288 47 C 272 47 256 47 240 47 C 224 47 208 47 192 47 C 176 47 160 47 144 47 C 128 47 112 47 96 47 C 80 47 64 47 48 47 C 32 47 16 47 8 47 L 0 47 Z"
        fill="#F9E4D4" stroke-linecap="round" stroke-linejoin="miter"></path>
</svg>